<mxfile host="app.diagrams.net" modified="2024-05-13T15:51:57.032Z" agent="Mozilla/5.0 (X11; Linux x86_64; rv:125.0) Gecko/20100101 Firefox/125.0" etag="yRNN3JMN0kY-OxbClftH" version="24.3.1" type="device">
  <diagram name="Page-1" id="ehTvzjttjoQZDK8W5nIP">
    <mxGraphModel dx="2256" dy="604" grid="0" gridSize="10" guides="1" tooltips="1" connect="1" arrows="1" fold="1" page="1" pageScale="1" pageWidth="850" pageHeight="1100" math="0" shadow="0">
      <root>
        <mxCell id="0" />
        <mxCell id="1" parent="0" />
        <mxCell id="9iyMvuDRTwR94SuxfZs8-1" value="&lt;font style=&quot;font-size: 20px;&quot;&gt;1&lt;/font&gt;" style="rounded=0;whiteSpace=wrap;html=1;" parent="1" vertex="1">
          <mxGeometry x="40" y="160" width="50" height="50" as="geometry" />
        </mxCell>
        <mxCell id="9iyMvuDRTwR94SuxfZs8-2" value="&lt;font style=&quot;font-size: 20px;&quot;&gt;2&lt;br&gt;&lt;/font&gt;" style="rounded=0;whiteSpace=wrap;html=1;" parent="1" vertex="1">
          <mxGeometry x="90" y="160" width="50" height="50" as="geometry" />
        </mxCell>
        <mxCell id="9iyMvuDRTwR94SuxfZs8-59" value="3" style="rounded=0;whiteSpace=wrap;html=1;fontSize=20;" parent="1" vertex="1">
          <mxGeometry x="140" y="160" width="50" height="50" as="geometry" />
        </mxCell>
        <mxCell id="9iyMvuDRTwR94SuxfZs8-60" value="4" style="rounded=0;whiteSpace=wrap;html=1;fontSize=20;" parent="1" vertex="1">
          <mxGeometry x="190" y="160" width="50" height="50" as="geometry" />
        </mxCell>
        <mxCell id="9iyMvuDRTwR94SuxfZs8-61" value="5" style="rounded=0;whiteSpace=wrap;html=1;fontSize=20;" parent="1" vertex="1">
          <mxGeometry x="240" y="160" width="50" height="50" as="geometry" />
        </mxCell>
        <mxCell id="9iyMvuDRTwR94SuxfZs8-83" value="6" style="rounded=0;whiteSpace=wrap;html=1;fontSize=20;" parent="1" vertex="1">
          <mxGeometry x="290" y="160" width="50" height="50" as="geometry" />
        </mxCell>
        <mxCell id="9iyMvuDRTwR94SuxfZs8-84" value="7" style="rounded=0;whiteSpace=wrap;html=1;fontSize=20;" parent="1" vertex="1">
          <mxGeometry x="340" y="160" width="50" height="50" as="geometry" />
        </mxCell>
        <mxCell id="9iyMvuDRTwR94SuxfZs8-85" value="8" style="rounded=0;whiteSpace=wrap;html=1;fontSize=20;" parent="1" vertex="1">
          <mxGeometry x="390" y="160" width="50" height="50" as="geometry" />
        </mxCell>
        <mxCell id="9iyMvuDRTwR94SuxfZs8-86" value="9" style="rounded=0;whiteSpace=wrap;html=1;fontSize=20;" parent="1" vertex="1">
          <mxGeometry x="440" y="160" width="50" height="50" as="geometry" />
        </mxCell>
        <mxCell id="9iyMvuDRTwR94SuxfZs8-87" value="10" style="rounded=0;whiteSpace=wrap;html=1;fontSize=20;" parent="1" vertex="1">
          <mxGeometry x="490" y="160" width="50" height="50" as="geometry" />
        </mxCell>
        <mxCell id="9iyMvuDRTwR94SuxfZs8-88" value="1&lt;font style=&quot;font-size: 20px;&quot;&gt;1&lt;/font&gt;" style="rounded=0;whiteSpace=wrap;html=1;fontSize=20;" parent="1" vertex="1">
          <mxGeometry x="540" y="160" width="50" height="50" as="geometry" />
        </mxCell>
        <mxCell id="9iyMvuDRTwR94SuxfZs8-89" value="12" style="rounded=0;whiteSpace=wrap;html=1;fontSize=20;" parent="1" vertex="1">
          <mxGeometry x="590" y="160" width="50" height="50" as="geometry" />
        </mxCell>
        <mxCell id="9iyMvuDRTwR94SuxfZs8-90" value="13" style="rounded=0;whiteSpace=wrap;html=1;fontSize=20;" parent="1" vertex="1">
          <mxGeometry x="640" y="160" width="50" height="50" as="geometry" />
        </mxCell>
        <mxCell id="9iyMvuDRTwR94SuxfZs8-91" value="14" style="rounded=0;whiteSpace=wrap;html=1;fontSize=20;" parent="1" vertex="1">
          <mxGeometry x="690" y="160" width="50" height="50" as="geometry" />
        </mxCell>
        <mxCell id="9iyMvuDRTwR94SuxfZs8-92" value="15" style="rounded=0;whiteSpace=wrap;html=1;fontSize=20;" parent="1" vertex="1">
          <mxGeometry x="740" y="160" width="50" height="50" as="geometry" />
        </mxCell>
        <mxCell id="9iyMvuDRTwR94SuxfZs8-93" value="16" style="rounded=0;whiteSpace=wrap;html=1;fontSize=20;" parent="1" vertex="1">
          <mxGeometry x="790" y="160" width="50" height="50" as="geometry" />
        </mxCell>
        <mxCell id="9iyMvuDRTwR94SuxfZs8-94" value="17" style="rounded=0;whiteSpace=wrap;html=1;fontSize=20;" parent="1" vertex="1">
          <mxGeometry x="840" y="160" width="50" height="50" as="geometry" />
        </mxCell>
        <mxCell id="9iyMvuDRTwR94SuxfZs8-95" value="18" style="rounded=0;whiteSpace=wrap;html=1;fontSize=20;" parent="1" vertex="1">
          <mxGeometry x="890" y="160" width="50" height="50" as="geometry" />
        </mxCell>
        <mxCell id="9iyMvuDRTwR94SuxfZs8-96" value="19" style="rounded=0;whiteSpace=wrap;html=1;fontSize=20;" parent="1" vertex="1">
          <mxGeometry x="940" y="160" width="50" height="50" as="geometry" />
        </mxCell>
        <mxCell id="9iyMvuDRTwR94SuxfZs8-97" value="&lt;div&gt;20&lt;/div&gt;" style="rounded=0;whiteSpace=wrap;html=1;fontSize=20;" parent="1" vertex="1">
          <mxGeometry x="990" y="160" width="50" height="50" as="geometry" />
        </mxCell>
        <mxCell id="9iyMvuDRTwR94SuxfZs8-98" value="&lt;font style=&quot;font-size: 20px;&quot;&gt;1&lt;/font&gt;" style="rounded=0;whiteSpace=wrap;html=1;" parent="1" vertex="1">
          <mxGeometry x="90" y="210" width="50" height="50" as="geometry" />
        </mxCell>
        <mxCell id="9iyMvuDRTwR94SuxfZs8-99" value="&lt;font style=&quot;font-size: 20px;&quot;&gt;2&lt;br&gt;&lt;/font&gt;" style="rounded=0;whiteSpace=wrap;html=1;" parent="1" vertex="1">
          <mxGeometry x="140" y="210" width="50" height="50" as="geometry" />
        </mxCell>
        <mxCell id="9iyMvuDRTwR94SuxfZs8-100" value="3" style="rounded=0;whiteSpace=wrap;html=1;fontSize=20;" parent="1" vertex="1">
          <mxGeometry x="190" y="210" width="50" height="50" as="geometry" />
        </mxCell>
        <mxCell id="9iyMvuDRTwR94SuxfZs8-101" value="4" style="rounded=0;whiteSpace=wrap;html=1;fontSize=20;" parent="1" vertex="1">
          <mxGeometry x="240" y="210" width="50" height="50" as="geometry" />
        </mxCell>
        <mxCell id="9iyMvuDRTwR94SuxfZs8-102" value="5" style="rounded=0;whiteSpace=wrap;html=1;fontSize=20;" parent="1" vertex="1">
          <mxGeometry x="290" y="210" width="50" height="50" as="geometry" />
        </mxCell>
        <mxCell id="9iyMvuDRTwR94SuxfZs8-103" value="6" style="rounded=0;whiteSpace=wrap;html=1;fontSize=20;" parent="1" vertex="1">
          <mxGeometry x="340" y="210" width="50" height="50" as="geometry" />
        </mxCell>
        <mxCell id="9iyMvuDRTwR94SuxfZs8-104" value="7" style="rounded=0;whiteSpace=wrap;html=1;fontSize=20;" parent="1" vertex="1">
          <mxGeometry x="390" y="210" width="50" height="50" as="geometry" />
        </mxCell>
        <mxCell id="9iyMvuDRTwR94SuxfZs8-105" value="8" style="rounded=0;whiteSpace=wrap;html=1;fontSize=20;" parent="1" vertex="1">
          <mxGeometry x="440" y="210" width="50" height="50" as="geometry" />
        </mxCell>
        <mxCell id="9iyMvuDRTwR94SuxfZs8-106" value="9" style="rounded=0;whiteSpace=wrap;html=1;fontSize=20;" parent="1" vertex="1">
          <mxGeometry x="490" y="210" width="50" height="50" as="geometry" />
        </mxCell>
        <mxCell id="9iyMvuDRTwR94SuxfZs8-107" value="10" style="rounded=0;whiteSpace=wrap;html=1;fontSize=20;" parent="1" vertex="1">
          <mxGeometry x="540" y="210" width="50" height="50" as="geometry" />
        </mxCell>
        <mxCell id="9iyMvuDRTwR94SuxfZs8-108" value="1&lt;font style=&quot;font-size: 20px;&quot;&gt;1&lt;/font&gt;" style="rounded=0;whiteSpace=wrap;html=1;fontSize=20;" parent="1" vertex="1">
          <mxGeometry x="590" y="210" width="50" height="50" as="geometry" />
        </mxCell>
        <mxCell id="9iyMvuDRTwR94SuxfZs8-109" value="12" style="rounded=0;whiteSpace=wrap;html=1;fontSize=20;" parent="1" vertex="1">
          <mxGeometry x="640" y="210" width="50" height="50" as="geometry" />
        </mxCell>
        <mxCell id="9iyMvuDRTwR94SuxfZs8-110" value="13" style="rounded=0;whiteSpace=wrap;html=1;fontSize=20;" parent="1" vertex="1">
          <mxGeometry x="690" y="210" width="50" height="50" as="geometry" />
        </mxCell>
        <mxCell id="9iyMvuDRTwR94SuxfZs8-111" value="14" style="rounded=0;whiteSpace=wrap;html=1;fontSize=20;" parent="1" vertex="1">
          <mxGeometry x="740" y="210" width="50" height="50" as="geometry" />
        </mxCell>
        <mxCell id="9iyMvuDRTwR94SuxfZs8-112" value="15" style="rounded=0;whiteSpace=wrap;html=1;fontSize=20;" parent="1" vertex="1">
          <mxGeometry x="790" y="210" width="50" height="50" as="geometry" />
        </mxCell>
        <mxCell id="9iyMvuDRTwR94SuxfZs8-113" value="16" style="rounded=0;whiteSpace=wrap;html=1;fontSize=20;" parent="1" vertex="1">
          <mxGeometry x="840" y="210" width="50" height="50" as="geometry" />
        </mxCell>
        <mxCell id="9iyMvuDRTwR94SuxfZs8-114" value="17" style="rounded=0;whiteSpace=wrap;html=1;fontSize=20;" parent="1" vertex="1">
          <mxGeometry x="890" y="210" width="50" height="50" as="geometry" />
        </mxCell>
        <mxCell id="9iyMvuDRTwR94SuxfZs8-115" value="18" style="rounded=0;whiteSpace=wrap;html=1;fontSize=20;" parent="1" vertex="1">
          <mxGeometry x="940" y="210" width="50" height="50" as="geometry" />
        </mxCell>
        <mxCell id="9iyMvuDRTwR94SuxfZs8-116" value="19" style="rounded=0;whiteSpace=wrap;html=1;fontSize=20;" parent="1" vertex="1">
          <mxGeometry x="990" y="210" width="50" height="50" as="geometry" />
        </mxCell>
        <mxCell id="9iyMvuDRTwR94SuxfZs8-117" value="&lt;div&gt;0&lt;/div&gt;" style="rounded=0;whiteSpace=wrap;html=1;fontSize=20;" parent="1" vertex="1">
          <mxGeometry x="40" y="210" width="50" height="50" as="geometry" />
        </mxCell>
        <mxCell id="9iyMvuDRTwR94SuxfZs8-118" value="&quot;line&quot;" style="text;html=1;align=center;verticalAlign=middle;whiteSpace=wrap;rounded=0;" parent="1" vertex="1">
          <mxGeometry x="-40" y="170" width="60" height="30" as="geometry" />
        </mxCell>
        <mxCell id="9iyMvuDRTwR94SuxfZs8-119" value="array index" style="text;html=1;align=center;verticalAlign=middle;whiteSpace=wrap;rounded=0;" parent="1" vertex="1">
          <mxGeometry x="-60" y="220" width="80" height="30" as="geometry" />
        </mxCell>
        <mxCell id="9iyMvuDRTwR94SuxfZs8-120" value="" style="endArrow=classic;html=1;rounded=0;entryX=0.5;entryY=1;entryDx=0;entryDy=0;opacity=50;fillColor=#e1d5e7;strokeColor=#9673a6;" parent="1" target="9iyMvuDRTwR94SuxfZs8-107" edge="1">
          <mxGeometry width="50" height="50" relative="1" as="geometry">
            <mxPoint x="565" y="300" as="sourcePoint" />
            <mxPoint x="650" y="270" as="targetPoint" />
          </mxGeometry>
        </mxCell>
        <mxCell id="9iyMvuDRTwR94SuxfZs8-123" value="&lt;div&gt;relative_linenr = 11&lt;/div&gt;&lt;div&gt;relative_offset = 1260&lt;br&gt;&lt;/div&gt;" style="ellipse;whiteSpace=wrap;html=1;" parent="1" vertex="1">
          <mxGeometry x="500" y="300" width="130" height="80" as="geometry" />
        </mxCell>
        <mxCell id="9iyMvuDRTwR94SuxfZs8-124" value="" style="endArrow=classic;html=1;rounded=0;entryX=0.5;entryY=1;entryDx=0;entryDy=0;exitX=0.5;exitY=0;exitDx=0;exitDy=0;opacity=50;fillColor=#e1d5e7;strokeColor=#9673a6;" parent="1" source="9iyMvuDRTwR94SuxfZs8-125" edge="1">
          <mxGeometry width="50" height="50" relative="1" as="geometry">
            <mxPoint x="315" y="300" as="sourcePoint" />
            <mxPoint x="315" y="260" as="targetPoint" />
          </mxGeometry>
        </mxCell>
        <mxCell id="9iyMvuDRTwR94SuxfZs8-125" value="&lt;div&gt;relative_linenr = -6&lt;br&gt;&lt;/div&gt;&lt;div&gt;relative_offset = -384&lt;br&gt;&lt;/div&gt;" style="ellipse;whiteSpace=wrap;html=1;" parent="1" vertex="1">
          <mxGeometry x="250" y="390" width="130" height="80" as="geometry" />
        </mxCell>
        <mxCell id="9iyMvuDRTwR94SuxfZs8-126" value="" style="endArrow=classic;html=1;rounded=0;entryX=0.5;entryY=1;entryDx=0;entryDy=0;exitX=0.5;exitY=0;exitDx=0;exitDy=0;opacity=50;fillColor=#e1d5e7;strokeColor=#9673a6;" parent="1" source="9iyMvuDRTwR94SuxfZs8-127" target="9iyMvuDRTwR94SuxfZs8-100" edge="1">
          <mxGeometry width="50" height="50" relative="1" as="geometry">
            <mxPoint x="215" y="420" as="sourcePoint" />
            <mxPoint x="215" y="380" as="targetPoint" />
          </mxGeometry>
        </mxCell>
        <mxCell id="9iyMvuDRTwR94SuxfZs8-127" value="&lt;div&gt;relative_linenr = -2&lt;br&gt;&lt;/div&gt;&lt;div&gt;relative_offset = -304&lt;br&gt;&lt;/div&gt;" style="ellipse;whiteSpace=wrap;html=1;" parent="1" vertex="1">
          <mxGeometry x="150" y="510" width="130" height="80" as="geometry" />
        </mxCell>
        <mxCell id="9iyMvuDRTwR94SuxfZs8-128" value="" style="endArrow=classic;html=1;rounded=0;exitX=0.785;exitY=0.088;exitDx=0;exitDy=0;exitPerimeter=0;entryX=0.285;entryY=1;entryDx=0;entryDy=0;entryPerimeter=0;" parent="1" source="9iyMvuDRTwR94SuxfZs8-127" target="9iyMvuDRTwR94SuxfZs8-125" edge="1">
          <mxGeometry width="50" height="50" relative="1" as="geometry">
            <mxPoint x="600" y="390" as="sourcePoint" />
            <mxPoint x="650" y="340" as="targetPoint" />
          </mxGeometry>
        </mxCell>
        <mxCell id="9iyMvuDRTwR94SuxfZs8-129" value="" style="endArrow=classic;html=1;rounded=0;exitX=0.754;exitY=0.075;exitDx=0;exitDy=0;exitPerimeter=0;" parent="1" source="9iyMvuDRTwR94SuxfZs8-125" target="9iyMvuDRTwR94SuxfZs8-123" edge="1">
          <mxGeometry width="50" height="50" relative="1" as="geometry">
            <mxPoint x="340" y="390" as="sourcePoint" />
            <mxPoint x="390" y="340" as="targetPoint" />
          </mxGeometry>
        </mxCell>
        <mxCell id="9iyMvuDRTwR94SuxfZs8-130" value="" style="endArrow=classic;html=1;rounded=0;entryX=0.5;entryY=1;entryDx=0;entryDy=0;exitX=0.5;exitY=0;exitDx=0;exitDy=0;opacity=50;fillColor=#e1d5e7;strokeColor=#9673a6;" parent="1" source="9iyMvuDRTwR94SuxfZs8-131" edge="1">
          <mxGeometry width="50" height="50" relative="1" as="geometry">
            <mxPoint x="115" y="300" as="sourcePoint" />
            <mxPoint x="115" y="260" as="targetPoint" />
          </mxGeometry>
        </mxCell>
        <mxCell id="9iyMvuDRTwR94SuxfZs8-131" value="&lt;div&gt;relative_linenr = -2&lt;br&gt;&lt;/div&gt;&lt;div&gt;relative_offset = -440&lt;/div&gt;" style="ellipse;whiteSpace=wrap;html=1;" parent="1" vertex="1">
          <mxGeometry x="23" y="657" width="130" height="80" as="geometry" />
        </mxCell>
        <mxCell id="9iyMvuDRTwR94SuxfZs8-132" value="" style="endArrow=classic;html=1;rounded=0;exitX=0.738;exitY=0.013;exitDx=0;exitDy=0;exitPerimeter=0;entryX=0;entryY=1;entryDx=0;entryDy=0;" parent="1" source="9iyMvuDRTwR94SuxfZs8-131" target="9iyMvuDRTwR94SuxfZs8-127" edge="1">
          <mxGeometry width="50" height="50" relative="1" as="geometry">
            <mxPoint x="600" y="500" as="sourcePoint" />
            <mxPoint x="650" y="450" as="targetPoint" />
          </mxGeometry>
        </mxCell>
        <mxCell id="9iyMvuDRTwR94SuxfZs8-134" value="&lt;div&gt;relative_linenr = -1&lt;br&gt;&lt;/div&gt;&lt;div&gt;relative_offset = -132&lt;/div&gt;" style="ellipse;whiteSpace=wrap;html=1;" parent="1" vertex="1">
          <mxGeometry x="-110" y="790" width="130" height="80" as="geometry" />
        </mxCell>
        <mxCell id="9iyMvuDRTwR94SuxfZs8-135" value="" style="endArrow=classic;html=1;rounded=0;exitX=0.685;exitY=0;exitDx=0;exitDy=0;exitPerimeter=0;entryX=0.246;entryY=0.988;entryDx=0;entryDy=0;entryPerimeter=0;" parent="1" source="9iyMvuDRTwR94SuxfZs8-134" target="9iyMvuDRTwR94SuxfZs8-131" edge="1">
          <mxGeometry width="50" height="50" relative="1" as="geometry">
            <mxPoint x="320" y="590" as="sourcePoint" />
            <mxPoint x="370" y="540" as="targetPoint" />
          </mxGeometry>
        </mxCell>
        <mxCell id="9iyMvuDRTwR94SuxfZs8-137" value="&lt;div&gt;relative_linenr = 1&lt;br&gt;&lt;/div&gt;&lt;div&gt;relative_offset = 224&lt;/div&gt;" style="ellipse;whiteSpace=wrap;html=1;" parent="1" vertex="1">
          <mxGeometry x="70" y="801" width="130" height="80" as="geometry" />
        </mxCell>
        <mxCell id="9iyMvuDRTwR94SuxfZs8-138" value="" style="curved=1;endArrow=classic;html=1;rounded=0;entryX=0.5;entryY=1;entryDx=0;entryDy=0;opacity=50;fillColor=#e1d5e7;strokeColor=#9673a6;exitX=0.5;exitY=0;exitDx=0;exitDy=0;" parent="1" source="9iyMvuDRTwR94SuxfZs8-137" target="9iyMvuDRTwR94SuxfZs8-99" edge="1">
          <mxGeometry width="50" height="50" relative="1" as="geometry">
            <mxPoint x="168" y="790" as="sourcePoint" />
            <mxPoint x="370" y="520" as="targetPoint" />
            <Array as="points">
              <mxPoint x="230" y="709" />
              <mxPoint x="95" y="543" />
            </Array>
          </mxGeometry>
        </mxCell>
        <mxCell id="9iyMvuDRTwR94SuxfZs8-139" value="" style="curved=1;endArrow=classic;html=1;rounded=0;entryX=0.5;entryY=1;entryDx=0;entryDy=0;exitX=0.5;exitY=0;exitDx=0;exitDy=0;opacity=50;fillColor=#e1d5e7;strokeColor=#9673a6;" parent="1" source="9iyMvuDRTwR94SuxfZs8-134" target="9iyMvuDRTwR94SuxfZs8-117" edge="1">
          <mxGeometry width="50" height="50" relative="1" as="geometry">
            <mxPoint x="320" y="570" as="sourcePoint" />
            <mxPoint x="370" y="520" as="targetPoint" />
            <Array as="points">
              <mxPoint x="-76" y="691" />
              <mxPoint x="-45" y="498" />
            </Array>
          </mxGeometry>
        </mxCell>
        <mxCell id="9iyMvuDRTwR94SuxfZs8-140" value="" style="endArrow=classic;html=1;rounded=0;exitX=0.5;exitY=0;exitDx=0;exitDy=0;" parent="1" source="9iyMvuDRTwR94SuxfZs8-137" target="9iyMvuDRTwR94SuxfZs8-131" edge="1">
          <mxGeometry width="50" height="50" relative="1" as="geometry">
            <mxPoint x="318" y="567" as="sourcePoint" />
            <mxPoint x="368" y="517" as="targetPoint" />
          </mxGeometry>
        </mxCell>
        <mxCell id="9iyMvuDRTwR94SuxfZs8-141" value="0" style="rounded=0;whiteSpace=wrap;html=1;fontSize=20;" parent="1" vertex="1">
          <mxGeometry x="40" y="120" width="50" height="50" as="geometry" />
        </mxCell>
        <mxCell id="9iyMvuDRTwR94SuxfZs8-142" value="132" style="rounded=0;whiteSpace=wrap;html=1;fontSize=20;" parent="1" vertex="1">
          <mxGeometry x="90" y="120" width="50" height="50" as="geometry" />
        </mxCell>
        <mxCell id="9iyMvuDRTwR94SuxfZs8-143" value="356" style="rounded=0;whiteSpace=wrap;html=1;fontSize=20;" parent="1" vertex="1">
          <mxGeometry x="140" y="120" width="50" height="50" as="geometry" />
        </mxCell>
        <mxCell id="9iyMvuDRTwR94SuxfZs8-144" value="572" style="rounded=0;whiteSpace=wrap;html=1;fontSize=20;" parent="1" vertex="1">
          <mxGeometry x="190" y="120" width="50" height="50" as="geometry" />
        </mxCell>
        <mxCell id="9iyMvuDRTwR94SuxfZs8-145" value="628" style="rounded=0;whiteSpace=wrap;html=1;fontSize=20;" parent="1" vertex="1">
          <mxGeometry x="240" y="120" width="50" height="50" as="geometry" />
        </mxCell>
        <mxCell id="9iyMvuDRTwR94SuxfZs8-146" value="876" style="rounded=0;whiteSpace=wrap;html=1;fontSize=20;" parent="1" vertex="1">
          <mxGeometry x="290" y="120" width="50" height="50" as="geometry" />
        </mxCell>
        <mxCell id="9iyMvuDRTwR94SuxfZs8-147" value="1032" style="rounded=0;whiteSpace=wrap;html=1;fontSize=20;" parent="1" vertex="1">
          <mxGeometry x="340" y="120" width="50" height="50" as="geometry" />
        </mxCell>
        <mxCell id="9iyMvuDRTwR94SuxfZs8-148" value="1176" style="rounded=0;whiteSpace=wrap;html=1;fontSize=20;" parent="1" vertex="1">
          <mxGeometry x="390" y="120" width="50" height="50" as="geometry" />
        </mxCell>
        <mxCell id="9iyMvuDRTwR94SuxfZs8-149" value="1180" style="rounded=0;whiteSpace=wrap;html=1;fontSize=20;" parent="1" vertex="1">
          <mxGeometry x="440" y="120" width="50" height="50" as="geometry" />
        </mxCell>
        <mxCell id="9iyMvuDRTwR94SuxfZs8-150" value="1260" style="rounded=0;whiteSpace=wrap;html=1;fontSize=20;" parent="1" vertex="1">
          <mxGeometry x="490" y="120" width="50" height="50" as="geometry" />
        </mxCell>
        <mxCell id="9iyMvuDRTwR94SuxfZs8-151" value="1448" style="rounded=0;whiteSpace=wrap;html=1;fontSize=20;" parent="1" vertex="1">
          <mxGeometry x="540" y="120" width="50" height="50" as="geometry" />
        </mxCell>
        <mxCell id="9iyMvuDRTwR94SuxfZs8-152" value="1628" style="rounded=0;whiteSpace=wrap;html=1;fontSize=20;" parent="1" vertex="1">
          <mxGeometry x="590" y="120" width="50" height="50" as="geometry" />
        </mxCell>
        <mxCell id="9iyMvuDRTwR94SuxfZs8-153" value="1760" style="rounded=0;whiteSpace=wrap;html=1;fontSize=20;" parent="1" vertex="1">
          <mxGeometry x="640" y="120" width="50" height="50" as="geometry" />
        </mxCell>
        <mxCell id="9iyMvuDRTwR94SuxfZs8-154" value="1852" style="rounded=0;whiteSpace=wrap;html=1;fontSize=20;" parent="1" vertex="1">
          <mxGeometry x="690" y="120" width="50" height="50" as="geometry" />
        </mxCell>
        <mxCell id="9iyMvuDRTwR94SuxfZs8-155" value="2144" style="rounded=0;whiteSpace=wrap;html=1;fontSize=20;" parent="1" vertex="1">
          <mxGeometry x="740" y="120" width="50" height="50" as="geometry" />
        </mxCell>
        <mxCell id="9iyMvuDRTwR94SuxfZs8-156" value="2168" style="rounded=0;whiteSpace=wrap;html=1;fontSize=20;" parent="1" vertex="1">
          <mxGeometry x="790" y="120" width="50" height="50" as="geometry" />
        </mxCell>
        <mxCell id="9iyMvuDRTwR94SuxfZs8-157" value="2344" style="rounded=0;whiteSpace=wrap;html=1;fontSize=20;" parent="1" vertex="1">
          <mxGeometry x="840" y="120" width="50" height="50" as="geometry" />
        </mxCell>
        <mxCell id="9iyMvuDRTwR94SuxfZs8-158" value="2372" style="rounded=0;whiteSpace=wrap;html=1;fontSize=20;" parent="1" vertex="1">
          <mxGeometry x="890" y="120" width="50" height="50" as="geometry" />
        </mxCell>
        <mxCell id="9iyMvuDRTwR94SuxfZs8-159" value="2408" style="rounded=0;whiteSpace=wrap;html=1;fontSize=20;" parent="1" vertex="1">
          <mxGeometry x="940" y="120" width="50" height="50" as="geometry" />
        </mxCell>
        <mxCell id="9iyMvuDRTwR94SuxfZs8-160" value="2568" style="rounded=0;whiteSpace=wrap;html=1;fontSize=20;" parent="1" vertex="1">
          <mxGeometry x="990" y="120" width="50" height="50" as="geometry" />
        </mxCell>
        <mxCell id="9iyMvuDRTwR94SuxfZs8-161" value="start index" style="text;html=1;align=center;verticalAlign=middle;whiteSpace=wrap;rounded=0;" parent="1" vertex="1">
          <mxGeometry x="-60.5" y="130" width="81" height="30" as="geometry" />
        </mxCell>
        <mxCell id="9iyMvuDRTwR94SuxfZs8-162" value="&lt;div&gt;relative_linenr = 1&lt;br&gt;&lt;/div&gt;&lt;div&gt;relative_offset = 56&lt;br&gt;&lt;/div&gt;" style="ellipse;whiteSpace=wrap;html=1;" parent="1" vertex="1">
          <mxGeometry x="221" y="657" width="130" height="80" as="geometry" />
        </mxCell>
        <mxCell id="9iyMvuDRTwR94SuxfZs8-163" value="" style="endArrow=classic;html=1;rounded=0;entryX=1;entryY=1;entryDx=0;entryDy=0;" parent="1" source="9iyMvuDRTwR94SuxfZs8-162" target="9iyMvuDRTwR94SuxfZs8-127" edge="1">
          <mxGeometry width="50" height="50" relative="1" as="geometry">
            <mxPoint x="289" y="514" as="sourcePoint" />
            <mxPoint x="339" y="464" as="targetPoint" />
          </mxGeometry>
        </mxCell>
        <mxCell id="9iyMvuDRTwR94SuxfZs8-165" value="" style="curved=1;endArrow=classic;html=1;rounded=0;entryX=0.5;entryY=1;entryDx=0;entryDy=0;exitX=0.5;exitY=0;exitDx=0;exitDy=0;fillColor=#e1d5e7;strokeColor=#9673a6;opacity=50;" parent="1" source="9iyMvuDRTwR94SuxfZs8-162" target="9iyMvuDRTwR94SuxfZs8-101" edge="1">
          <mxGeometry width="50" height="50" relative="1" as="geometry">
            <mxPoint x="289" y="514" as="sourcePoint" />
            <mxPoint x="339" y="464" as="targetPoint" />
            <Array as="points">
              <mxPoint x="339" y="514" />
              <mxPoint x="208" y="459" />
            </Array>
          </mxGeometry>
        </mxCell>
        <mxCell id="9iyMvuDRTwR94SuxfZs8-166" value="&lt;div&gt;relative_linenr = 2&lt;br&gt;&lt;/div&gt;&lt;div&gt;relative_offset = 304&lt;br&gt;&lt;/div&gt;&lt;div&gt;&lt;br&gt;&lt;/div&gt;" style="ellipse;whiteSpace=wrap;html=1;" parent="1" vertex="1">
          <mxGeometry x="400" y="510" width="130" height="80" as="geometry" />
        </mxCell>
        <mxCell id="9iyMvuDRTwR94SuxfZs8-168" value="" style="endArrow=classic;html=1;rounded=0;entryX=0.5;entryY=1;entryDx=0;entryDy=0;exitX=0.5;exitY=0;exitDx=0;exitDy=0;opacity=50;fillColor=#e1d5e7;strokeColor=#9673a6;" parent="1" source="9iyMvuDRTwR94SuxfZs8-166" target="9iyMvuDRTwR94SuxfZs8-105" edge="1">
          <mxGeometry width="50" height="50" relative="1" as="geometry">
            <mxPoint x="289" y="514" as="sourcePoint" />
            <mxPoint x="339" y="464" as="targetPoint" />
          </mxGeometry>
        </mxCell>
        <mxCell id="9iyMvuDRTwR94SuxfZs8-169" value="" style="endArrow=classic;html=1;rounded=0;entryX=1;entryY=1;entryDx=0;entryDy=0;exitX=0;exitY=0;exitDx=0;exitDy=0;" parent="1" source="9iyMvuDRTwR94SuxfZs8-166" target="9iyMvuDRTwR94SuxfZs8-125" edge="1">
          <mxGeometry width="50" height="50" relative="1" as="geometry">
            <mxPoint x="289" y="514" as="sourcePoint" />
            <mxPoint x="339" y="464" as="targetPoint" />
          </mxGeometry>
        </mxCell>
        <mxCell id="9iyMvuDRTwR94SuxfZs8-170" value="&lt;div&gt;relative_linenr = 1&lt;br&gt;&lt;/div&gt;&lt;div&gt;relative_offset = 80&lt;br&gt;&lt;/div&gt;&lt;div&gt;&lt;br&gt;&lt;/div&gt;" style="ellipse;whiteSpace=wrap;html=1;" parent="1" vertex="1">
          <mxGeometry x="490" y="657" width="130" height="80" as="geometry" />
        </mxCell>
        <mxCell id="9iyMvuDRTwR94SuxfZs8-171" value="&lt;div&gt;relative_linenr = -1&lt;br&gt;&lt;/div&gt;&lt;div&gt;relative_offset = -4&lt;br&gt;&lt;/div&gt;&lt;div&gt;&lt;br&gt;&lt;/div&gt;" style="ellipse;whiteSpace=wrap;html=1;" parent="1" vertex="1">
          <mxGeometry x="357" y="657" width="130" height="80" as="geometry" />
        </mxCell>
        <mxCell id="9iyMvuDRTwR94SuxfZs8-172" value="" style="curved=1;endArrow=classic;html=1;rounded=0;entryX=0.5;entryY=1;entryDx=0;entryDy=0;exitX=0.5;exitY=0;exitDx=0;exitDy=0;fillColor=#e1d5e7;strokeColor=#9673a6;opacity=50;" parent="1" source="9iyMvuDRTwR94SuxfZs8-171" target="9iyMvuDRTwR94SuxfZs8-104" edge="1">
          <mxGeometry width="50" height="50" relative="1" as="geometry">
            <mxPoint x="289" y="514" as="sourcePoint" />
            <mxPoint x="339" y="464" as="targetPoint" />
            <Array as="points">
              <mxPoint x="381" y="552" />
              <mxPoint x="429" y="464" />
            </Array>
          </mxGeometry>
        </mxCell>
        <mxCell id="9iyMvuDRTwR94SuxfZs8-173" value="" style="endArrow=classic;html=1;rounded=0;exitX=0.5;exitY=0;exitDx=0;exitDy=0;entryX=0.27;entryY=0.983;entryDx=0;entryDy=0;entryPerimeter=0;" parent="1" source="9iyMvuDRTwR94SuxfZs8-171" target="9iyMvuDRTwR94SuxfZs8-166" edge="1">
          <mxGeometry width="50" height="50" relative="1" as="geometry">
            <mxPoint x="289" y="514" as="sourcePoint" />
            <mxPoint x="339" y="464" as="targetPoint" />
          </mxGeometry>
        </mxCell>
        <mxCell id="9iyMvuDRTwR94SuxfZs8-174" value="&lt;div&gt;relative_linenr = -1&lt;br&gt;&lt;/div&gt;&lt;div&gt;relative_offset = -144&lt;br&gt;&lt;/div&gt;&lt;div&gt;&lt;br&gt;&lt;/div&gt;" style="ellipse;whiteSpace=wrap;html=1;" parent="1" vertex="1">
          <mxGeometry x="270" y="801" width="130" height="80" as="geometry" />
        </mxCell>
        <mxCell id="9iyMvuDRTwR94SuxfZs8-175" value="" style="curved=1;endArrow=classic;html=1;rounded=0;entryX=0.5;entryY=1;entryDx=0;entryDy=0;exitX=0.5;exitY=0;exitDx=0;exitDy=0;fillColor=#e1d5e7;strokeColor=#9673a6;opacity=50;" parent="1" source="9iyMvuDRTwR94SuxfZs8-174" target="9iyMvuDRTwR94SuxfZs8-103" edge="1">
          <mxGeometry width="50" height="50" relative="1" as="geometry">
            <mxPoint x="289" y="514" as="sourcePoint" />
            <mxPoint x="339" y="464" as="targetPoint" />
            <Array as="points">
              <mxPoint x="361" y="648" />
              <mxPoint x="410" y="497" />
            </Array>
          </mxGeometry>
        </mxCell>
        <mxCell id="9iyMvuDRTwR94SuxfZs8-176" value="" style="endArrow=classic;startArrow=none;html=1;rounded=0;exitX=0.5;exitY=0;exitDx=0;exitDy=0;entryX=0.248;entryY=0.984;entryDx=0;entryDy=0;entryPerimeter=0;startFill=0;" parent="1" source="9iyMvuDRTwR94SuxfZs8-174" target="9iyMvuDRTwR94SuxfZs8-171" edge="1">
          <mxGeometry width="50" height="50" relative="1" as="geometry">
            <mxPoint x="289" y="514" as="sourcePoint" />
            <mxPoint x="339" y="464" as="targetPoint" />
          </mxGeometry>
        </mxCell>
        <mxCell id="9iyMvuDRTwR94SuxfZs8-177" value="" style="endArrow=classic;html=1;rounded=0;entryX=1;entryY=1;entryDx=0;entryDy=0;exitX=0.5;exitY=0;exitDx=0;exitDy=0;" parent="1" source="9iyMvuDRTwR94SuxfZs8-170" target="9iyMvuDRTwR94SuxfZs8-166" edge="1">
          <mxGeometry width="50" height="50" relative="1" as="geometry">
            <mxPoint x="289" y="514" as="sourcePoint" />
            <mxPoint x="339" y="464" as="targetPoint" />
          </mxGeometry>
        </mxCell>
        <mxCell id="9iyMvuDRTwR94SuxfZs8-178" value="" style="curved=1;endArrow=classic;html=1;rounded=0;exitX=0.5;exitY=0;exitDx=0;exitDy=0;entryX=0.5;entryY=1;entryDx=0;entryDy=0;fillColor=#e1d5e7;strokeColor=#9673a6;opacity=50;" parent="1" source="9iyMvuDRTwR94SuxfZs8-170" target="9iyMvuDRTwR94SuxfZs8-106" edge="1">
          <mxGeometry width="50" height="50" relative="1" as="geometry">
            <mxPoint x="289" y="514" as="sourcePoint" />
            <mxPoint x="339" y="464" as="targetPoint" />
            <Array as="points">
              <mxPoint x="574" y="518" />
              <mxPoint x="446" y="417" />
            </Array>
          </mxGeometry>
        </mxCell>
        <mxCell id="Vf0tSzCuKWJDqfzBoM5x-1" value="&lt;div&gt;relative_linenr = 5&lt;br&gt;&lt;/div&gt;&lt;div&gt;relative_offset = 720&lt;br&gt;&lt;/div&gt;" style="ellipse;whiteSpace=wrap;html=1;" parent="1" vertex="1">
          <mxGeometry x="750" y="390" width="130" height="80" as="geometry" />
        </mxCell>
        <mxCell id="Vf0tSzCuKWJDqfzBoM5x-2" value="" style="endArrow=classic;html=1;rounded=0;entryX=1;entryY=1;entryDx=0;entryDy=0;exitX=0;exitY=0;exitDx=0;exitDy=0;" parent="1" source="Vf0tSzCuKWJDqfzBoM5x-1" target="9iyMvuDRTwR94SuxfZs8-123" edge="1">
          <mxGeometry width="50" height="50" relative="1" as="geometry">
            <mxPoint x="647" y="469" as="sourcePoint" />
            <mxPoint x="697" y="419" as="targetPoint" />
          </mxGeometry>
        </mxCell>
        <mxCell id="Vf0tSzCuKWJDqfzBoM5x-3" value="" style="endArrow=classic;html=1;rounded=0;entryX=0.5;entryY=1;entryDx=0;entryDy=0;exitX=0.5;exitY=0;exitDx=0;exitDy=0;fillColor=#e1d5e7;strokeColor=#9673a6;opacity=50;" parent="1" source="Vf0tSzCuKWJDqfzBoM5x-1" target="9iyMvuDRTwR94SuxfZs8-112" edge="1">
          <mxGeometry width="50" height="50" relative="1" as="geometry">
            <mxPoint x="647" y="469" as="sourcePoint" />
            <mxPoint x="697" y="419" as="targetPoint" />
          </mxGeometry>
        </mxCell>
        <mxCell id="Vf0tSzCuKWJDqfzBoM5x-4" value="&lt;div&gt;relative_linenr = -2&lt;/div&gt;&lt;div&gt;relative_offset = -316&lt;br&gt;&lt;/div&gt;" style="ellipse;whiteSpace=wrap;html=1;" parent="1" vertex="1">
          <mxGeometry x="650" y="510" width="130" height="80" as="geometry" />
        </mxCell>
        <mxCell id="Vf0tSzCuKWJDqfzBoM5x-5" value="" style="endArrow=classic;html=1;rounded=0;entryX=0.5;entryY=1;entryDx=0;entryDy=0;exitX=0.5;exitY=0;exitDx=0;exitDy=0;fillColor=#e1d5e7;strokeColor=#9673a6;opacity=50;" parent="1" source="Vf0tSzCuKWJDqfzBoM5x-4" target="9iyMvuDRTwR94SuxfZs8-110" edge="1">
          <mxGeometry width="50" height="50" relative="1" as="geometry">
            <mxPoint x="647" y="469" as="sourcePoint" />
            <mxPoint x="697" y="419" as="targetPoint" />
          </mxGeometry>
        </mxCell>
        <mxCell id="Vf0tSzCuKWJDqfzBoM5x-6" value="" style="endArrow=classic;html=1;rounded=0;entryX=0.308;entryY=0.975;entryDx=0;entryDy=0;entryPerimeter=0;exitX=0.5;exitY=0;exitDx=0;exitDy=0;" parent="1" source="Vf0tSzCuKWJDqfzBoM5x-4" target="Vf0tSzCuKWJDqfzBoM5x-1" edge="1">
          <mxGeometry width="50" height="50" relative="1" as="geometry">
            <mxPoint x="647" y="469" as="sourcePoint" />
            <mxPoint x="697" y="419" as="targetPoint" />
          </mxGeometry>
        </mxCell>
        <mxCell id="Vf0tSzCuKWJDqfzBoM5x-7" value="&lt;div&gt;relative_linenr = -2&lt;/div&gt;&lt;div&gt;relative_offset = -224&lt;br&gt;&lt;/div&gt;" style="ellipse;whiteSpace=wrap;html=1;" parent="1" vertex="1">
          <mxGeometry x="620" y="657" width="130" height="80" as="geometry" />
        </mxCell>
        <mxCell id="Vf0tSzCuKWJDqfzBoM5x-8" value="&lt;div&gt;relative_linenr = 1&lt;br&gt;&lt;/div&gt;&lt;div&gt;relative_offset = 292&lt;br&gt;&lt;/div&gt;" style="ellipse;whiteSpace=wrap;html=1;" parent="1" vertex="1">
          <mxGeometry x="751" y="657" width="130" height="80" as="geometry" />
        </mxCell>
        <mxCell id="Vf0tSzCuKWJDqfzBoM5x-9" value="" style="endArrow=classic;html=1;rounded=0;exitX=0.5;exitY=0;exitDx=0;exitDy=0;entryX=0.5;entryY=1;entryDx=0;entryDy=0;" parent="1" source="Vf0tSzCuKWJDqfzBoM5x-7" target="Vf0tSzCuKWJDqfzBoM5x-4" edge="1">
          <mxGeometry width="50" height="50" relative="1" as="geometry">
            <mxPoint x="647" y="469" as="sourcePoint" />
            <mxPoint x="697" y="419" as="targetPoint" />
          </mxGeometry>
        </mxCell>
        <mxCell id="Vf0tSzCuKWJDqfzBoM5x-10" value="" style="endArrow=classic;html=1;rounded=0;exitX=0.5;exitY=0;exitDx=0;exitDy=0;entryX=1;entryY=1;entryDx=0;entryDy=0;" parent="1" source="Vf0tSzCuKWJDqfzBoM5x-8" target="Vf0tSzCuKWJDqfzBoM5x-4" edge="1">
          <mxGeometry width="50" height="50" relative="1" as="geometry">
            <mxPoint x="695" y="667" as="sourcePoint" />
            <mxPoint x="725" y="600" as="targetPoint" />
          </mxGeometry>
        </mxCell>
        <mxCell id="Vf0tSzCuKWJDqfzBoM5x-11" value="" style="curved=1;endArrow=classic;html=1;rounded=0;entryX=0.5;entryY=1;entryDx=0;entryDy=0;exitX=0.5;exitY=0;exitDx=0;exitDy=0;fillColor=#e1d5e7;strokeColor=#9673a6;opacity=50;" parent="1" source="Vf0tSzCuKWJDqfzBoM5x-8" target="9iyMvuDRTwR94SuxfZs8-111" edge="1">
          <mxGeometry width="50" height="50" relative="1" as="geometry">
            <mxPoint x="647" y="469" as="sourcePoint" />
            <mxPoint x="697" y="419" as="targetPoint" />
            <Array as="points">
              <mxPoint x="795" y="525" />
              <mxPoint x="747" y="505" />
              <mxPoint x="727" y="438" />
            </Array>
          </mxGeometry>
        </mxCell>
        <mxCell id="Vf0tSzCuKWJDqfzBoM5x-12" value="" style="curved=1;endArrow=classic;html=1;rounded=0;exitX=0.5;exitY=0;exitDx=0;exitDy=0;entryX=0.5;entryY=1;entryDx=0;entryDy=0;fillColor=#e1d5e7;strokeColor=#9673a6;opacity=50;" parent="1" source="Vf0tSzCuKWJDqfzBoM5x-7" target="9iyMvuDRTwR94SuxfZs8-108" edge="1">
          <mxGeometry width="50" height="50" relative="1" as="geometry">
            <mxPoint x="647" y="469" as="sourcePoint" />
            <mxPoint x="697" y="419" as="targetPoint" />
            <Array as="points">
              <mxPoint x="634" y="612" />
              <mxPoint x="615" y="497" />
              <mxPoint x="679" y="423" />
            </Array>
          </mxGeometry>
        </mxCell>
        <mxCell id="Vf0tSzCuKWJDqfzBoM5x-13" value="&lt;div&gt;relative_linenr = -1&lt;/div&gt;&lt;div&gt;relative_offset = -92&lt;br&gt;&lt;/div&gt;" style="ellipse;whiteSpace=wrap;html=1;" parent="1" vertex="1">
          <mxGeometry x="503" y="801" width="130" height="80" as="geometry" />
        </mxCell>
        <mxCell id="Vf0tSzCuKWJDqfzBoM5x-14" value="" style="endArrow=classic;html=1;rounded=0;exitX=1;exitY=0;exitDx=0;exitDy=0;entryX=0;entryY=1;entryDx=0;entryDy=0;" parent="1" source="Vf0tSzCuKWJDqfzBoM5x-13" target="Vf0tSzCuKWJDqfzBoM5x-7" edge="1">
          <mxGeometry width="50" height="50" relative="1" as="geometry">
            <mxPoint x="647" y="627" as="sourcePoint" />
            <mxPoint x="697" y="577" as="targetPoint" />
          </mxGeometry>
        </mxCell>
        <mxCell id="Vf0tSzCuKWJDqfzBoM5x-15" value="" style="curved=1;endArrow=classic;html=1;rounded=0;exitX=0.5;exitY=0;exitDx=0;exitDy=0;entryX=0.5;entryY=1;entryDx=0;entryDy=0;fillColor=#e1d5e7;strokeColor=#9673a6;opacity=50;" parent="1" source="Vf0tSzCuKWJDqfzBoM5x-13" target="9iyMvuDRTwR94SuxfZs8-109" edge="1">
          <mxGeometry width="50" height="50" relative="1" as="geometry">
            <mxPoint x="647" y="604" as="sourcePoint" />
            <mxPoint x="697" y="554" as="targetPoint" />
            <Array as="points">
              <mxPoint x="636" y="699" />
              <mxPoint x="616" y="561" />
              <mxPoint x="692" y="434" />
            </Array>
          </mxGeometry>
        </mxCell>
        <mxCell id="Vf0tSzCuKWJDqfzBoM5x-16" value="&lt;div&gt;relative_linenr = 3&lt;br&gt;&lt;/div&gt;&lt;div&gt;relative_offset = 240&lt;br&gt;&lt;/div&gt;" style="ellipse;whiteSpace=wrap;html=1;" parent="1" vertex="1">
          <mxGeometry x="900" y="510" width="130" height="80" as="geometry" />
        </mxCell>
        <mxCell id="Vf0tSzCuKWJDqfzBoM5x-18" value="" style="endArrow=classic;html=1;rounded=0;entryX=0.5;entryY=1;entryDx=0;entryDy=0;exitX=0.5;exitY=0;exitDx=0;exitDy=0;opacity=50;fillColor=#e1d5e7;strokeColor=#9673a6;" parent="1" source="Vf0tSzCuKWJDqfzBoM5x-16" edge="1">
          <mxGeometry width="50" height="50" relative="1" as="geometry">
            <mxPoint x="964.5" y="508" as="sourcePoint" />
            <mxPoint x="964.5" y="258" as="targetPoint" />
          </mxGeometry>
        </mxCell>
        <mxCell id="Vf0tSzCuKWJDqfzBoM5x-19" value="" style="endArrow=classic;html=1;rounded=0;entryX=1;entryY=1;entryDx=0;entryDy=0;exitX=0;exitY=0;exitDx=0;exitDy=0;" parent="1" source="Vf0tSzCuKWJDqfzBoM5x-16" target="Vf0tSzCuKWJDqfzBoM5x-1" edge="1">
          <mxGeometry width="50" height="50" relative="1" as="geometry">
            <mxPoint x="650" y="492" as="sourcePoint" />
            <mxPoint x="700" y="442" as="targetPoint" />
          </mxGeometry>
        </mxCell>
        <mxCell id="Vf0tSzCuKWJDqfzBoM5x-20" value="&lt;div&gt;relative_linenr = 1&lt;br&gt;&lt;/div&gt;&lt;div&gt;relative_offset = 160&lt;br&gt;&lt;/div&gt;" style="ellipse;whiteSpace=wrap;html=1;" parent="1" vertex="1">
          <mxGeometry x="1069" y="657" width="130" height="80" as="geometry" />
        </mxCell>
        <mxCell id="Vf0tSzCuKWJDqfzBoM5x-21" value="" style="endArrow=classic;html=1;rounded=0;entryX=1;entryY=1;entryDx=0;entryDy=0;" parent="1" source="Vf0tSzCuKWJDqfzBoM5x-20" target="Vf0tSzCuKWJDqfzBoM5x-16" edge="1">
          <mxGeometry width="50" height="50" relative="1" as="geometry">
            <mxPoint x="1072" y="654" as="sourcePoint" />
            <mxPoint x="1014" y="590" as="targetPoint" />
          </mxGeometry>
        </mxCell>
        <mxCell id="Vf0tSzCuKWJDqfzBoM5x-22" value="" style="curved=1;endArrow=classic;html=1;rounded=0;exitX=0.5;exitY=0;exitDx=0;exitDy=0;entryX=0.5;entryY=1;entryDx=0;entryDy=0;fillColor=#e1d5e7;strokeColor=#9673a6;opacity=50;" parent="1" source="Vf0tSzCuKWJDqfzBoM5x-20" target="9iyMvuDRTwR94SuxfZs8-116" edge="1">
          <mxGeometry width="50" height="50" relative="1" as="geometry">
            <mxPoint x="929" y="492" as="sourcePoint" />
            <mxPoint x="979" y="442" as="targetPoint" />
            <Array as="points">
              <mxPoint x="1060" y="452" />
            </Array>
          </mxGeometry>
        </mxCell>
        <mxCell id="Vf0tSzCuKWJDqfzBoM5x-23" value="&lt;div&gt;relative_linenr = -1&lt;br&gt;&lt;/div&gt;&lt;div&gt;relative_offset = -36&lt;br&gt;&lt;/div&gt;" style="ellipse;whiteSpace=wrap;html=1;" parent="1" vertex="1">
          <mxGeometry x="883" y="657" width="130" height="80" as="geometry" />
        </mxCell>
        <mxCell id="Vf0tSzCuKWJDqfzBoM5x-24" value="" style="endArrow=classic;html=1;rounded=0;exitX=0.5;exitY=0;exitDx=0;exitDy=0;entryX=0.5;entryY=1;entryDx=0;entryDy=0;" parent="1" source="Vf0tSzCuKWJDqfzBoM5x-23" target="Vf0tSzCuKWJDqfzBoM5x-16" edge="1">
          <mxGeometry width="50" height="50" relative="1" as="geometry">
            <mxPoint x="929" y="514" as="sourcePoint" />
            <mxPoint x="979" y="464" as="targetPoint" />
          </mxGeometry>
        </mxCell>
        <mxCell id="Vf0tSzCuKWJDqfzBoM5x-25" value="" style="curved=1;endArrow=classic;html=1;rounded=0;entryX=0.5;entryY=1;entryDx=0;entryDy=0;exitX=0;exitY=0;exitDx=0;exitDy=0;fillColor=#e1d5e7;strokeColor=#9673a6;opacity=50;" parent="1" source="Vf0tSzCuKWJDqfzBoM5x-23" target="9iyMvuDRTwR94SuxfZs8-114" edge="1">
          <mxGeometry width="50" height="50" relative="1" as="geometry">
            <mxPoint x="929" y="514" as="sourcePoint" />
            <mxPoint x="979" y="464" as="targetPoint" />
            <Array as="points">
              <mxPoint x="886" y="545" />
              <mxPoint x="899" y="468" />
            </Array>
          </mxGeometry>
        </mxCell>
        <mxCell id="Vf0tSzCuKWJDqfzBoM5x-26" value="&lt;div&gt;relative_linenr = -1&lt;br&gt;&lt;/div&gt;&lt;div&gt;relative_offset = -28&lt;/div&gt;" style="ellipse;whiteSpace=wrap;html=1;" parent="1" vertex="1">
          <mxGeometry x="840" y="801" width="130" height="80" as="geometry" />
        </mxCell>
        <mxCell id="Vf0tSzCuKWJDqfzBoM5x-27" value="" style="endArrow=classic;html=1;rounded=0;entryX=0.5;entryY=1;entryDx=0;entryDy=0;exitX=0.5;exitY=0;exitDx=0;exitDy=0;" parent="1" source="Vf0tSzCuKWJDqfzBoM5x-26" target="Vf0tSzCuKWJDqfzBoM5x-23" edge="1">
          <mxGeometry width="50" height="50" relative="1" as="geometry">
            <mxPoint x="929" y="582" as="sourcePoint" />
            <mxPoint x="979" y="532" as="targetPoint" />
          </mxGeometry>
        </mxCell>
        <mxCell id="Vf0tSzCuKWJDqfzBoM5x-28" value="" style="curved=1;endArrow=classic;html=1;rounded=0;entryX=0.5;entryY=1;entryDx=0;entryDy=0;exitX=0;exitY=0;exitDx=0;exitDy=0;fillColor=#e1d5e7;strokeColor=#9673a6;opacity=50;" parent="1" source="Vf0tSzCuKWJDqfzBoM5x-26" target="9iyMvuDRTwR94SuxfZs8-113" edge="1">
          <mxGeometry width="50" height="50" relative="1" as="geometry">
            <mxPoint x="929" y="582" as="sourcePoint" />
            <mxPoint x="979" y="532" as="targetPoint" />
            <Array as="points">
              <mxPoint x="887" y="669" />
              <mxPoint x="865" y="603" />
              <mxPoint x="898" y="432" />
            </Array>
          </mxGeometry>
        </mxCell>
      </root>
    </mxGraphModel>
  </diagram>
</mxfile>
